<?xml version="1.0" encoding="UTF-8" standalone="no"?>
<svg
   version="1.1"
   width="297.63779pt"
   height="419.52759pt"
   id="svg30"
   viewBox="0 0 297.63779 419.52759"
   sodipodi:docname="Dilabs logo.cdr"
   xmlns:inkscape="http://www.inkscape.org/namespaces/inkscape"
   xmlns:sodipodi="http://sodipodi.sourceforge.net/DTD/sodipodi-0.dtd"
   xmlns="http://www.w3.org/2000/svg"
   xmlns:svg="http://www.w3.org/2000/svg">
  <defs
     id="defs34" />
  <sodipodi:namedview
     id="namedview32"
     pagecolor="#ffffff"
     bordercolor="#000000"
     borderopacity="0.25"
     inkscape:showpageshadow="2"
     inkscape:pageopacity="0.0"
     inkscape:pagecheckerboard="0"
     inkscape:deskcolor="#d1d1d1"
     inkscape:document-units="pt" />
  <g
     id="Layer1000">
    <path
       d="m 68.3041,301.3594 h -9.0587 v 22.9007 h 9.0587 c 3.6604,0 6.5483,-1.0302 8.6447,-3.081 2.1066,-2.0604 3.1544,-4.8374 3.1544,-8.3414 0,-3.4489 -1.0669,-6.2267 -3.2095,-8.323 -2.1338,-2.1067 -5.0026,-3.1553 -8.5896,-3.1553 z m 0,-3.421 c 4.681,0 8.4611,1.3798 11.3307,4.148 2.86,2.7682 4.2948,6.364 4.2948,10.8064 0,4.4695 -1.4077,8.0565 -4.231,10.7513 -2.8233,2.694 -6.6217,4.037 -11.3945,4.037 H 55.557 v -29.7427 z m 22.173,29.7427 v -29.9078 h 3.7433 v 29.9078 z m 12.692,0 v -29.7427 h 3.6883 v 26.3217 h 19.4231 v 3.421 z m 32.7136,-11.4775 h 13.087 l -6.5666,-13.17 z m -9.5926,11.4775 14.5768,-29.7427 h 3.0715 l 14.7341,29.7427 h -4.0099 l -4.0466,-8.0014 h -16.4354 l -3.9269,8.0014 z m 40.5953,-17.9978 h 14.2273 c 1.5633,0 2.7499,-0.3591 3.5774,-1.067 0.8275,-0.7086 1.2417,-1.7292 1.2417,-3.0539 0,-1.3972 -0.3958,-2.4554 -1.1954,-3.1544 -0.8004,-0.6991 -2.0141,-1.0486 -3.6237,-1.0486 h -14.2273 z m 0,14.5768 h 15.5696 c 1.6925,0 3.0172,-0.4971 3.9915,-1.4994 0.9656,-0.9935 1.4531,-2.3541 1.4531,-4.0833 0,-1.7013 -0.4875,-3.0627 -1.4531,-4.065 -0.9743,-1.0022 -2.299,-1.5082 -3.9915,-1.5082 h -15.5696 z m -3.6883,3.421 v -29.7427 h 17.5933 c 2.9246,0 5.1318,0.6257 6.6312,1.8761 1.4995,1.2417 2.2536,3.0906 2.2536,5.5277 0,1.1866 -0.2306,2.2527 -0.6991,3.1816 -0.4692,0.9384 -1.1315,1.6925 -1.9957,2.2631 1.5816,0.9193 2.777,2.0412 3.5869,3.3659 0.8092,1.3334 1.2138,2.86 1.2138,4.5797 0,2.7498 -0.9018,4.9299 -2.7044,6.5387 -1.8115,1.6095 -4.2581,2.4099 -7.3479,2.4099 z m 33.1908,-4.4695 2.1617,-3.2095 c 2.0971,1.6366 4.2852,2.8871 6.5571,3.7425 2.2719,0.8651 4.5246,1.2968 6.7502,1.2968 2.7499,0 4.985,-0.5794 6.6959,-1.7468 1.7197,-1.1683 2.5751,-2.6765 2.5751,-4.5071 0,-1.4531 -0.616,-2.6573 -1.8489,-3.5957 -1.2233,-0.9472 -2.9334,-1.5082 -5.104,-1.683 -0.5242,-0.055 -1.2783,-0.1101 -2.2623,-0.1652 -4.8836,-0.3407 -8.2224,-0.92 -9.9972,-1.7204 -1.3797,-0.6711 -2.437,-1.5266 -3.1544,-2.5751 -0.7174,-1.0478 -1.0765,-2.2344 -1.0765,-3.5407 0,-2.3908 1.0669,-4.3594 3.2103,-5.9043 2.133,-1.545 4.9108,-2.3174 8.323,-2.3174 2.4834,0 4.9292,0.4046 7.3391,1.2233 2.4188,0.8179 4.7178,2.0229 6.8883,3.6237 l -2.1522,3.0714 c -1.8393,-1.4715 -3.7617,-2.5846 -5.7846,-3.3292 -2.0237,-0.7453 -4.1017,-1.1132 -6.2355,-1.1132 -2.2439,0 -4.0929,0.4325 -5.5548,1.3063 -1.4531,0.8738 -2.1801,1.9591 -2.1801,3.2742 0,0.5147 0.1197,0.9927 0.3495,1.4252 0.2306,0.4325 0.5985,0.8371 1.0765,1.2137 1.2233,0.9201 3.8623,1.4995 7.9272,1.7476 1.8673,0.111 3.3109,0.2299 4.3323,0.3496 3.0252,0.3495 5.4072,1.3151 7.1731,2.9158 1.7564,1.6 2.6398,3.5678 2.6398,5.9043 0,2.7866 -1.205,5.0761 -3.6237,6.8699 -2.4187,1.7931 -5.5827,2.6948 -9.5001,2.6948 -2.9613,0 -5.7207,-0.4325 -8.2591,-1.2967 -2.5384,-0.8554 -4.9659,-2.1801 -7.2657,-3.9548 z"
       style="fill:#00509e;fill-rule:evenodd"
       id="path2" />
    <g
       id="Layer1001">
      <path
         d="M 53.3666,126.1752 H 89.3224 V 91.2535 H 53.3666 Z"
         style="fill:#00509e;fill-rule:evenodd"
         id="path4" />
      <defs
         id="defs11">
        <linearGradient
           id="grad1">
          <stop
             offset="0%"
             stop-color="#e30016"
             stop-opacity="1.0000"
             id="stop6" />
          <stop
             offset="100%"
             stop-color="#8b1310"
             stop-opacity="1.0000"
             id="stop8" />
        </linearGradient>
      </defs>
      <path
         d="m 53.3667,130.1872 h 35.9559 v 122.0275 h 15.5539 c 44.6848,1.2125 75.9726,-24.5266 98.0288,-78.0739 9.4209,72.1142 -29.2668,114.1365 -89.6468,112.8667 l -23.9359,0.1118 v 0.1395 H 53.3667 Z"
         style="fill:url(#grad1)"
         id="path13" />
      <defs
         id="defs20">
        <linearGradient
           id="grad2">
          <stop
             offset="0%"
             stop-color="#006828"
             stop-opacity="1.0000"
             id="stop15" />
          <stop
             offset="100%"
             stop-color="#73b61c"
             stop-opacity="1.0000"
             id="stop17" />
        </linearGradient>
      </defs>
      <path
         d="m 93.6231,91.3262 v 34.6316 c 32.9147,-1.583 53.8647,7.7797 64.1747,26.6011 15.7756,25.6597 10.6173,73.8538 -16.5335,87.8971 23.1085,-10.384 45.4997,-37.0784 59.7005,-72.8232 C 188.6426,106.013 148.3377,88.6498 93.6231,91.3262 Z"
         style="fill:url(#grad2)"
         id="path22" />
      <path
         d="m 226.9293,146.6482 -0.5142,-0.3155 0.3388,-0.4359 z m -15.5702,10.0638 0.2552,-0.5278 0.1279,0.085 -0.1613,0.2415 -1.012,2.1115 -1.4897,2.1563 0.2617,0.2621 c 0.3079,0.2057 2.6534,1.8141 2.7713,1.8229 0.3619,0.027 1.4117,-2.2841 1.862,-2.4832 0.4234,-0.3969 0.6847,-0.3021 1.3108,-1.0433 0.344,-0.4071 0.9258,-0.8594 1.2094,-1.2894 0.6191,-0.9388 1.5592,-1.813 2.339,-2.9803 l 0.1614,-0.2416 1.0266,0.6858 c 0.526,-0.7873 2.0862,-1.6848 2.4796,-2.2737 0.1424,-0.2131 -0.0775,-2.3778 -0.0779,-2.7595 l 2.484,-3.4048 0.4202,-0.6814 1.087,0.7261 -0.121,0.1812 c -0.2567,0.3843 -0.0836,1.2542 0.3008,1.511 l 0.3019,0.2016 c 0.4242,0.2834 1.2045,0.158 1.5109,-0.3007 l 0.242,-0.3623 c 0.2774,-0.4152 0.0358,-1.2862 -0.361,-1.5513 l -0.1812,-0.121 c -0.2283,-0.1525 -0.5013,-0.1217 -0.7049,-0.1216 l -0.2848,-1.3046 2.3637,-3.684 -0.4021,-0.2668 1.0828,-1.4589 0.9946,-1.5202 c 0.2047,0.2781 -0.0747,0.212 0.181,0.3828 l 0.8454,0.5648 c 0.2866,0.1914 0.7912,-0.004 1.0695,-0.4196 0.2838,-0.4243 0.4491,-0.8078 0.7852,-1.3109 l 0.9681,-1.4493 c 0.4589,0.3215 0.0721,0.3975 0.503,0.6853 l 0.3019,0.2017 c 0.2093,0.1398 0.852,0.0321 1.0477,-0.2608 0.2779,-0.416 0.1832,-1.1004 -0.2203,-1.3699 -0.1631,-0.109 -0.1859,-0.0824 -0.3423,-0.1413 -0.2256,0.0931 -0.446,0.1942 -0.7252,0.0395 l 0.2017,-0.3019 c 0.1543,-0.2309 0.0333,-0.01 0.0607,-0.2215 l -0.4922,-0.4356 -0.1921,-0.1089 0.121,-0.1812 -0.7247,-0.484 0.3227,-0.4832 c 0.2054,-0.3075 0.3386,0.1469 0.544,-0.1606 l 0.121,-0.1811 -0.3019,-0.2018 0.2824,-0.4227 c 0.169,-0.253 -0.6887,-0.8036 -0.9272,-0.9674 -0.4429,-0.3039 -0.201,-0.6608 -0.0175,-1.1484 l -0.1207,-0.0807 -0.5721,0.5981 5.1943,-7.2035 c 2.1192,-2.9931 3.2143,-5.7792 5.2014,-8.7538 l -2.1798,2.558 c -1.6701,0.7173 -5.0978,3.9504 -6.6717,5.8469 -0.2667,0.3212 -2.9114,1.4834 -3.559,1.8493 -1.2721,0.7187 -2.1519,2.0009 -3.2127,3.5889 l -0.3631,0.5435 c -0.1966,0.2943 -0.6122,1.2348 -0.9087,1.7517 -0.1969,0.3431 -0.5589,1.2652 -0.7476,1.7195 -0.4754,1.1448 -1.1258,2.3467 -1.6845,3.4769 -0.4205,0.8509 -1.522,2.7701 -2.1056,3.5646 -0.7463,1.0161 -1.4133,2.24 -2.2006,3.4185 l -0.7246,-0.4841 -0.2017,0.302 0.7246,0.4841 -1.0892,1.6305 c -0.0202,0.0303 -1.7349,1.4346 -1.9751,1.6513 -0.5724,0.5163 -1.3876,1.0231 -1.9915,1.5693 -1.0001,0.9041 -0.8819,1.0166 -2.0551,1.2501 -0.7887,0.157 -1.4165,0.4404 -2.1353,0.5837 -0.7778,0.1552 -8.5951,2.1114 -8.6685,2.2213 l -2.6625,3.9856 c 0.4256,0.1449 1.7285,0.2497 2.2692,0.3524 0.7665,0.1457 1.4913,0.2491 2.2692,0.352 0.6541,0.0865 4.1922,0.4989 4.5444,0.7342 l 1.1474,0.7665 0.3846,-0.1758 z"
         style="fill:#8b1310;fill-rule:evenodd"
         id="path24" />
    </g>
    <path
       d="m 231.7851,296.1741 c 0.9879,0 1.9519,0.253 2.8943,0.7589 0.94,0.5091 1.675,1.2329 2.2001,2.1785 0.5242,0.9432 0.7884,1.9279 0.7884,2.9534 0,1.015 -0.2586,1.9893 -0.7781,2.9238 -0.5163,0.9376 -1.2432,1.6646 -2.1753,2.1809 -0.9352,0.5195 -1.9096,0.778 -2.9294,0.778 -1.0198,0 -1.9974,-0.2585 -2.9294,-0.778 -0.9345,-0.5163 -1.6614,-1.2433 -2.1809,-2.1809 -0.5219,-0.9345 -0.7805,-1.9088 -0.7805,-2.9238 0,-1.0255 0.2634,-2.0102 0.7908,-2.9534 0.5275,-0.9456 1.2625,-1.6694 2.2049,-2.1785 0.94,-0.5059 1.9072,-0.7589 2.8951,-0.7589 z m 0,0.9751 c -0.8283,0 -1.6327,0.2131 -2.4155,0.636 -0.7829,0.4238 -1.3957,1.031 -1.8378,1.8163 -0.4421,0.7884 -0.6631,1.6087 -0.6631,2.4634 0,0.8466 0.2186,1.659 0.6527,2.437 0.4341,0.7773 1.0414,1.3845 1.8218,1.8186 0.7797,0.4341 1.592,0.652 2.4419,0.652 0.8467,0 1.6614,-0.2179 2.4418,-0.652 0.7805,-0.4341 1.3845,-1.0413 1.8163,-1.8186 0.4317,-0.778 0.6471,-1.5904 0.6471,-2.437 0,-0.8547 -0.2186,-1.675 -0.6575,-2.4634 -0.4397,-0.7853 -1.0526,-1.3925 -1.8378,-1.8163 -0.7852,-0.4229 -1.5896,-0.636 -2.4099,-0.636 z m -2.5831,8.1675 v -6.3329 h 2.1753 c 0.7461,0 1.284,0.0559 1.6167,0.1732 0.3328,0.1173 0.5961,0.3224 0.7964,0.612 0.1971,0.2937 0.2953,0.6025 0.2953,0.9297 0,0.4636 -0.1652,0.8658 -0.4956,1.2089 -0.3295,0.344 -0.7692,0.5355 -1.315,0.5778 0.2234,0.0934 0.4045,0.2051 0.5378,0.3359 0.2554,0.2506 0.5674,0.668 0.9376,1.2569 l 0.7717,1.2385 h -1.2489 l -0.5617,-0.9991 c -0.4421,-0.7829 -0.7964,-1.2752 -1.0678,-1.4723 -0.1867,-0.1468 -0.4604,-0.2187 -0.8203,-0.2187 h -0.5993 v 2.6901 z m 1.0222,-3.5631 h 1.2409 c 0.5913,0 0.9959,-0.0909 1.2121,-0.2665 0.2155,-0.1756 0.3248,-0.4102 0.3248,-0.703 0,-0.1868 -0.0534,-0.3543 -0.1572,-0.5036 -0.1037,-0.146 -0.2474,-0.2585 -0.4317,-0.3303 -0.1859,-0.0742 -0.5267,-0.1085 -1.0278,-0.1085 h -1.1611 z"
       style="fill:#1b1918;fill-rule:evenodd"
       id="path27" />
  </g>
</svg>
